<?xml version="1.0" encoding="UTF-8" standalone="no"?>
<!-- Created with Inkscape (http://www.inkscape.org/) -->

<svg
   xmlns:dc="http://purl.org/dc/elements/1.1/"
   xmlns:cc="http://creativecommons.org/ns#"
   xmlns:rdf="http://www.w3.org/1999/02/22-rdf-syntax-ns#"
   xmlns:svg="http://www.w3.org/2000/svg"
   xmlns="http://www.w3.org/2000/svg"
   xmlns:sodipodi="http://sodipodi.sourceforge.net/DTD/sodipodi-0.dtd"
   xmlns:inkscape="http://www.inkscape.org/namespaces/inkscape"
   width="600"
   height="200"
   id="svg4161"
   version="1.1"
   inkscape:version="0.91 r13725"
   sodipodi:docname="category_population.svg"
   inkscape:export-filename="category_population.png"
   inkscape:export-xdpi="45"
   inkscape:export-ydpi="45">
  <defs
     id="defs4163" />
  <sodipodi:namedview
     id="base"
     pagecolor="#ffffff"
     bordercolor="#666666"
     borderopacity="1.0"
     inkscape:pageopacity="0.0"
     inkscape:pageshadow="2"
     inkscape:zoom="0.7"
     inkscape:cx="245.52216"
     inkscape:cy="162.13167"
     inkscape:document-units="px"
     inkscape:current-layer="layer1"
     showgrid="false"
     inkscape:window-width="1168"
     inkscape:window-height="535"
     inkscape:window-x="466"
     inkscape:window-y="384"
     inkscape:window-maximized="0" />
  <metadata
     id="metadata4166">
    <rdf:RDF>
      <cc:Work
         rdf:about="">
        <dc:format>image/svg+xml</dc:format>
        <dc:type
           rdf:resource="http://purl.org/dc/dcmitype/StillImage" />
        <dc:title></dc:title>
      </cc:Work>
    </rdf:RDF>
  </metadata>
  <g
     inkscape:label="Layer 1"
     inkscape:groupmode="layer"
     id="layer1"
     transform="translate(0,-852.36218)">
    <flowRoot
       xml:space="preserve"
       id="flowRoot3442"
       style="font-style:normal;font-variant:normal;font-weight:normal;font-stretch:normal;font-size:48px;line-height:125%;font-family:'Droid Sans';-inkscape-font-specification:'Droid Sans';text-align:center;letter-spacing:0px;word-spacing:0px;text-anchor:middle;fill:#f2f2f2;fill-opacity:1;stroke:none"
       transform="translate(-176.68936,837.16951)"
       inkscape:export-filename="/home/brent/AndroidStudioProjects/androidbycode/CountryRankKing/art/menu_category_area.png"
       inkscape:export-xdpi="33.080002"
       inkscape:export-ydpi="33.080002"><flowRegion
         id="flowRegion3444"><rect
           id="rect3446"
           width="635.15735"
           height="174.42929"
           x="248.57143"
           y="69.505043"
           style="font-style:normal;font-variant:normal;font-weight:normal;font-stretch:normal;font-family:'Droid Sans';-inkscape-font-specification:'Droid Sans';fill:#f2f2f2" /></flowRegion><flowPara
         id="flowPara3450"
         style="font-style:normal;font-variant:normal;font-weight:bold;font-stretch:normal;font-size:64px;font-family:Vemana2000;-inkscape-font-specification:'Vemana2000 Bold';fill:#f2f2f2">Population</flowPara></flowRoot>    <path
       inkscape:connector-curvature="0"
       id="path1078"
       style="fill:#333333;fill-opacity:1;fill-rule:nonzero;stroke:none"
       d="m 173.91471,953.05575 c 0,45.47298 -36.86305,82.33605 -82.336028,82.33605 -45.471835,0 -82.3360301,-36.86307 -82.3360301,-82.33605 0,-45.47297 36.8641951,-82.33716 82.3360301,-82.33716 45.472978,0 82.336028,36.86419 82.336028,82.33716" />
    <circle
       style="fill:#ffffff"
       cx="14"
       cy="3"
       r="3"
       id="circle15"
       transform="matrix(3.0924588,0,0,3.0924588,48.284258,909.76077)" />
    <path
       inkscape:connector-curvature="0"
       style="fill:#ffffff"
       d="m 110.13343,937.5929 c 0,0 0,-6.18492 -6.18491,-6.18492 -1.54623,0 -24.739674,0 -24.739674,0 0,0 -6.184918,0 -6.184918,6.18492 l 0,21.64721 c 0,6.18492 6.184918,6.18492 6.184918,6.18492 l 0,30.92459 24.739674,0 0,-30.92459 c 0,0 6.18491,0 6.18491,-6.18492 0,-6.18492 0,-21.64721 0,-21.64721 z"
       id="path17" />
    <g
       id="g19"
       transform="matrix(3.0924588,0,0,3.0924588,50.649759,913.10327)"
       style="fill:#ffffff" />
    <g
       id="g21"
       transform="matrix(3.0924588,0,0,3.0924588,50.649759,913.10327)"
       style="fill:#ffffff" />
    <g
       id="g23"
       transform="matrix(3.0924588,0,0,3.0924588,50.649759,913.10327)"
       style="fill:#ffffff" />
    <g
       id="g25"
       transform="matrix(3.0924588,0,0,3.0924588,50.649759,913.10327)"
       style="fill:#ffffff" />
    <g
       id="g27"
       transform="matrix(3.0924588,0,0,3.0924588,50.649759,913.10327)"
       style="fill:#ffffff" />
    <g
       id="g29"
       transform="matrix(3.0924588,0,0,3.0924588,50.649759,913.10327)"
       style="fill:#ffffff" />
    <g
       id="g31"
       transform="matrix(3.0924588,0,0,3.0924588,50.649759,913.10327)"
       style="fill:#ffffff" />
    <g
       id="g33"
       transform="matrix(3.0924588,0,0,3.0924588,50.649759,913.10327)"
       style="fill:#ffffff" />
    <g
       id="g35"
       transform="matrix(3.0924588,0,0,3.0924588,50.649759,913.10327)"
       style="fill:#ffffff" />
    <g
       id="g37"
       transform="matrix(3.0924588,0,0,3.0924588,50.649759,913.10327)"
       style="fill:#ffffff" />
    <g
       id="g39"
       transform="matrix(3.0924588,0,0,3.0924588,50.649759,913.10327)"
       style="fill:#ffffff" />
    <g
       id="g41"
       transform="matrix(3.0924588,0,0,3.0924588,50.649759,913.10327)"
       style="fill:#ffffff" />
    <g
       id="g43"
       transform="matrix(3.0924588,0,0,3.0924588,50.649759,913.10327)"
       style="fill:#ffffff" />
    <g
       id="g45"
       transform="matrix(3.0924588,0,0,3.0924588,50.649759,913.10327)"
       style="fill:#ffffff" />
    <g
       id="g47"
       transform="matrix(3.0924588,0,0,3.0924588,50.649759,913.10327)"
       style="fill:#ffffff" />
  </g>
</svg>
