<?xml version="1.0" encoding="UTF-8" standalone="no"?>
<!-- Created with Inkscape (http://www.inkscape.org/) -->

<svg
   xmlns:dc="http://purl.org/dc/elements/1.1/"
   xmlns:cc="http://creativecommons.org/ns#"
   xmlns:rdf="http://www.w3.org/1999/02/22-rdf-syntax-ns#"
   xmlns:svg="http://www.w3.org/2000/svg"
   xmlns="http://www.w3.org/2000/svg"
   xmlns:sodipodi="http://sodipodi.sourceforge.net/DTD/sodipodi-0.dtd"
   xmlns:inkscape="http://www.inkscape.org/namespaces/inkscape"
   width="600"
   height="200"
   id="svg4161"
   version="1.1"
   inkscape:version="0.91 r13725"
   sodipodi:docname="category_population_density.svg"
   inkscape:export-filename="category_population_density.png"
   inkscape:export-xdpi="45"
   inkscape:export-ydpi="45">
  <defs
     id="defs4163" />
  <sodipodi:namedview
     id="base"
     pagecolor="#ffffff"
     bordercolor="#666666"
     borderopacity="1.0"
     inkscape:pageopacity="0.0"
     inkscape:pageshadow="2"
     inkscape:zoom="0.49497475"
     inkscape:cx="580.12538"
     inkscape:cy="139.51651"
     inkscape:document-units="px"
     inkscape:current-layer="layer1"
     showgrid="false"
     inkscape:window-width="1204"
     inkscape:window-height="482"
     inkscape:window-x="466"
     inkscape:window-y="384"
     inkscape:window-maximized="0" />
  <metadata
     id="metadata4166">
    <rdf:RDF>
      <cc:Work
         rdf:about="">
        <dc:format>image/svg+xml</dc:format>
        <dc:type
           rdf:resource="http://purl.org/dc/dcmitype/StillImage" />
        <dc:title></dc:title>
      </cc:Work>
    </rdf:RDF>
  </metadata>
  <g
     inkscape:label="Layer 1"
     inkscape:groupmode="layer"
     id="layer1"
     transform="translate(0,-852.36218)">
    <flowRoot
       xml:space="preserve"
       id="flowRoot3442"
       style="font-style:normal;font-variant:normal;font-weight:normal;font-stretch:normal;font-size:48px;line-height:125%;font-family:'Droid Sans';-inkscape-font-specification:'Droid Sans';text-align:center;letter-spacing:0px;word-spacing:0px;text-anchor:middle;fill:#f2f2f2;fill-opacity:1;stroke:none"
       transform="translate(-176.68936,795.24515)"
       inkscape:export-filename="/home/brent/AndroidStudioProjects/androidbycode/CountryRankKing/art/menu_category_area.png"
       inkscape:export-xdpi="33.080002"
       inkscape:export-ydpi="33.080002"><flowRegion
         id="flowRegion3444"><rect
           id="rect3446"
           width="635.15735"
           height="174.42929"
           x="248.57143"
           y="69.505043"
           style="font-style:normal;font-variant:normal;font-weight:normal;font-stretch:normal;font-family:'Droid Sans';-inkscape-font-specification:'Droid Sans';fill:#f2f2f2" /></flowRegion><flowPara
         id="flowPara3450"
         style="font-style:normal;font-variant:normal;font-weight:bold;font-stretch:normal;font-size:64px;font-family:Vemana2000;-inkscape-font-specification:'Vemana2000 Bold';fill:#f2f2f2">Population Density</flowPara></flowRoot>    <g
       id="g3361">
      <path
         d="m 173.91471,953.05575 c 0,45.47298 -36.86305,82.33605 -82.336028,82.33605 -45.471835,0 -82.3360301,-36.86307 -82.3360301,-82.33605 0,-45.47297 36.8641951,-82.33716 82.3360301,-82.33716 45.472978,0 82.336028,36.86419 82.336028,82.33716"
         style="fill:#333333;fill-opacity:1;fill-rule:nonzero;stroke:none"
         id="path1078"
         inkscape:connector-curvature="0" />
      <g
         style="fill:#ffffff"
         transform="matrix(3.0924588,0,0,3.0924588,48.284258,909.76077)"
         id="g3">
        <g
           style="fill:#ffffff"
           id="g5">
          <path
             id="path7"
             d="M 6,18 C 6,16 6,8 6,8 6,8 6.005,7.55 6.239,7 4.16,7 2,7 2,7 2,7 0,7 0,9 l 0,7 c 0,2 2,2 2,2 l 0,10 6,0 0,-8 c 0,0 -2,0 -2,-2 z"
             style="fill:#ffffff"
             inkscape:connector-curvature="0" />
          <path
             id="path9"
             d="M 6,6 C 6.52,6 7.001,5.856 7.427,5.624 7.486,5.588 7.552,5.556 7.615,5.521 8.446,4.988 9,4.061 9,3 9,1.343 7.657,0 6,0 4.343,0 3,1.343 3,3 3,4.657 4.343,6 6,6 Z"
             style="fill:#ffffff"
             inkscape:connector-curvature="0" />
          <path
             id="path11"
             d="M 26,7 21.762,7 C 21.995,7.55 22,8 22,8 c 0,0 0,8 0,10 0,2 -2,2 -2,2 l 0,8 6,0 0,-10 c 0,0 2,0 2,-2 0,-2 0,-7 0,-7 0,0 0,-2 -2,-2 z"
             style="fill:#ffffff"
             inkscape:connector-curvature="0" />
          <path
             id="path13"
             d="m 20.38,5.519 c 0.065,0.035 0.134,0.068 0.194,0.105 C 21,5.856 21.48,6 22,6 23.657,6 25,4.657 25,3 25,1.343 23.657,0 22,0 c -1.657,0 -3,1.343 -3,3 0,1.059 0.552,1.985 1.38,2.519 z"
             style="fill:#ffffff"
             inkscape:connector-curvature="0" />
          <circle
             id="circle15"
             r="3"
             cy="3"
             cx="14"
             style="fill:#ffffff" />
          <path
             id="path17"
             d="M 20,9 C 20,9 20,7 18,7 17.5,7 10,7 10,7 10,7 8,7 8,9 l 0,7 c 0,2 2,2 2,2 l 0,10 8,0 0,-10 c 0,0 2,0 2,-2 0,-2 0,-7 0,-7 z"
             style="fill:#ffffff"
             inkscape:connector-curvature="0" />
        </g>
      </g>
    </g>
    <g
       id="g19"
       transform="matrix(3.0924588,0,0,3.0924588,50.649759,913.10327)"
       style="fill:#ffffff" />
    <g
       id="g21"
       transform="matrix(3.0924588,0,0,3.0924588,50.649759,913.10327)"
       style="fill:#ffffff" />
    <g
       id="g23"
       transform="matrix(3.0924588,0,0,3.0924588,50.649759,913.10327)"
       style="fill:#ffffff" />
    <g
       id="g25"
       transform="matrix(3.0924588,0,0,3.0924588,50.649759,913.10327)"
       style="fill:#ffffff" />
    <g
       id="g27"
       transform="matrix(3.0924588,0,0,3.0924588,50.649759,913.10327)"
       style="fill:#ffffff" />
    <g
       id="g29"
       transform="matrix(3.0924588,0,0,3.0924588,50.649759,913.10327)"
       style="fill:#ffffff" />
    <g
       id="g31"
       transform="matrix(3.0924588,0,0,3.0924588,50.649759,913.10327)"
       style="fill:#ffffff" />
    <g
       id="g33"
       transform="matrix(3.0924588,0,0,3.0924588,50.649759,913.10327)"
       style="fill:#ffffff" />
    <g
       id="g35"
       transform="matrix(3.0924588,0,0,3.0924588,50.649759,913.10327)"
       style="fill:#ffffff" />
    <g
       id="g37"
       transform="matrix(3.0924588,0,0,3.0924588,50.649759,913.10327)"
       style="fill:#ffffff" />
    <g
       id="g39"
       transform="matrix(3.0924588,0,0,3.0924588,50.649759,913.10327)"
       style="fill:#ffffff" />
    <g
       id="g41"
       transform="matrix(3.0924588,0,0,3.0924588,50.649759,913.10327)"
       style="fill:#ffffff" />
    <g
       id="g43"
       transform="matrix(3.0924588,0,0,3.0924588,50.649759,913.10327)"
       style="fill:#ffffff" />
    <g
       id="g45"
       transform="matrix(3.0924588,0,0,3.0924588,50.649759,913.10327)"
       style="fill:#ffffff" />
    <g
       id="g47"
       transform="matrix(3.0924588,0,0,3.0924588,50.649759,913.10327)"
       style="fill:#ffffff" />
  </g>
</svg>
