<?xml version="1.0" encoding="UTF-8" standalone="no"?>
<!-- Created with Inkscape (http://www.inkscape.org/) -->

<svg
   xmlns:dc="http://purl.org/dc/elements/1.1/"
   xmlns:cc="http://creativecommons.org/ns#"
   xmlns:rdf="http://www.w3.org/1999/02/22-rdf-syntax-ns#"
   xmlns:svg="http://www.w3.org/2000/svg"
   xmlns="http://www.w3.org/2000/svg"
   xmlns:sodipodi="http://sodipodi.sourceforge.net/DTD/sodipodi-0.dtd"
   xmlns:inkscape="http://www.inkscape.org/namespaces/inkscape"
   width="550"
   height="200"
   id="svg4161"
   version="1.1"
   inkscape:version="0.91 r13725"
   sodipodi:docname="category_latitude.svg"
   inkscape:export-filename="category_latitude.png"
   inkscape:export-xdpi="45"
   inkscape:export-ydpi="45">
  <defs
     id="defs4163" />
  <sodipodi:namedview
     id="base"
     pagecolor="#ffffff"
     bordercolor="#666666"
     borderopacity="1.0"
     inkscape:pageopacity="0.0"
     inkscape:pageshadow="2"
     inkscape:zoom="0.49497475"
     inkscape:cx="-249.35687"
     inkscape:cy="141.12049"
     inkscape:document-units="px"
     inkscape:current-layer="layer1"
     showgrid="false"
     inkscape:window-width="1385"
     inkscape:window-height="631"
     inkscape:window-x="393"
     inkscape:window-y="261"
     inkscape:window-maximized="0" />
  <metadata
     id="metadata4166">
    <rdf:RDF>
      <cc:Work
         rdf:about="">
        <dc:format>image/svg+xml</dc:format>
        <dc:type
           rdf:resource="http://purl.org/dc/dcmitype/StillImage" />
        <dc:title></dc:title>
      </cc:Work>
    </rdf:RDF>
  </metadata>
  <g
     inkscape:label="Layer 1"
     inkscape:groupmode="layer"
     id="layer1"
     transform="translate(0,-852.36218)">
    <flowRoot
       xml:space="preserve"
       id="flowRoot3442"
       style="font-style:normal;font-variant:normal;font-weight:normal;font-stretch:normal;font-size:48px;line-height:125%;font-family:'Droid Sans';-inkscape-font-specification:'Droid Sans';text-align:center;letter-spacing:0px;word-spacing:0px;text-anchor:middle;fill:#f2f2f2;fill-opacity:1;stroke:none"
       transform="translate(-206.68936,837.16951)"
       inkscape:export-filename="/home/brent/AndroidStudioProjects/androidbycode/CountryRankKing/art/menu_category_area.png"
       inkscape:export-xdpi="33.080002"
       inkscape:export-ydpi="33.080002"><flowRegion
         id="flowRegion3444"><rect
           id="rect3446"
           width="635.15735"
           height="174.42929"
           x="248.57143"
           y="69.505043"
           style="font-style:normal;font-variant:normal;font-weight:normal;font-stretch:normal;font-family:'Droid Sans';-inkscape-font-specification:'Droid Sans';fill:#f2f2f2" /></flowRegion><flowPara
         id="flowPara3450"
         style="font-style:normal;font-variant:normal;font-weight:bold;font-stretch:normal;font-size:64px;font-family:Vemana2000;-inkscape-font-specification:'Vemana2000 Bold';fill:#f2f2f2">Latitude</flowPara></flowRoot>    <path
       inkscape:connector-curvature="0"
       id="path1078"
       style="fill:#333333;fill-opacity:1;fill-rule:nonzero;stroke:none"
       d="m 173.91471,953.05575 c 0,45.47298 -36.86305,82.33605 -82.336028,82.33605 -45.471835,0 -82.3360301,-36.86307 -82.3360301,-82.33605 0,-45.47297 36.8641951,-82.33716 82.3360301,-82.33716 45.472978,0 82.336028,36.86419 82.336028,82.33716" />
    <g
       id="g19"
       transform="matrix(3.0924588,0,0,3.0924588,50.649759,913.10327)"
       style="fill:#ffffff" />
    <g
       id="g21"
       transform="matrix(3.0924588,0,0,3.0924588,50.649759,913.10327)"
       style="fill:#ffffff" />
    <g
       id="g23"
       transform="matrix(3.0924588,0,0,3.0924588,50.649759,913.10327)"
       style="fill:#ffffff" />
    <g
       id="g25"
       transform="matrix(3.0924588,0,0,3.0924588,50.649759,913.10327)"
       style="fill:#ffffff" />
    <g
       id="g27"
       transform="matrix(3.0924588,0,0,3.0924588,50.649759,913.10327)"
       style="fill:#ffffff" />
    <g
       id="g29"
       transform="matrix(3.0924588,0,0,3.0924588,50.649759,913.10327)"
       style="fill:#ffffff" />
    <g
       id="g31"
       transform="matrix(3.0924588,0,0,3.0924588,50.649759,913.10327)"
       style="fill:#ffffff" />
    <g
       id="g33"
       transform="matrix(3.0924588,0,0,3.0924588,50.649759,913.10327)"
       style="fill:#ffffff" />
    <g
       id="g35"
       transform="matrix(3.0924588,0,0,3.0924588,50.649759,913.10327)"
       style="fill:#ffffff" />
    <g
       id="g37"
       transform="matrix(3.0924588,0,0,3.0924588,50.649759,913.10327)"
       style="fill:#ffffff" />
    <g
       id="g39"
       transform="matrix(3.0924588,0,0,3.0924588,50.649759,913.10327)"
       style="fill:#ffffff" />
    <g
       id="g41"
       transform="matrix(3.0924588,0,0,3.0924588,50.649759,913.10327)"
       style="fill:#ffffff" />
    <g
       id="g43"
       transform="matrix(3.0924588,0,0,3.0924588,50.649759,913.10327)"
       style="fill:#ffffff" />
    <g
       id="g45"
       transform="matrix(3.0924588,0,0,3.0924588,50.649759,913.10327)"
       style="fill:#ffffff" />
    <g
       id="g47"
       transform="matrix(3.0924588,0,0,3.0924588,50.649759,913.10327)"
       style="fill:#ffffff" />
    <g
       transform="matrix(0.16108349,0,0,0.16108349,41.219535,900.06296)"
       id="g3"
       style="fill:#ffffff">
      <path
         inkscape:connector-curvature="0"
         d="m 550.4,281.817 c -18.385,20.637 -36.395,42.868 -48.965,73.54 -5.721,14.164 -19.322,23.357 -34.613,23.357 -15.383,0 -28.984,-9.193 -34.799,-23.45 -14.541,-35.646 -36.584,-59.939 -57.971,-83.39 -5.346,-5.909 -10.693,-11.819 -15.945,-17.916 -0.281,0.094 -0.471,0.188 -0.75,0.281 -20.824,6.284 -36.865,33.862 -27.203,56.281 6.566,15.383 52.623,12.476 48.684,45.587 -3.283,27.108 32.172,34.237 44.742,32.925 12.57,-1.501 31.893,20.637 22.137,30.392 -9.66,9.756 -27.953,10.131 -25.139,35.27 0.75,7.316 22.889,6.379 22.889,17.447 0,11.162 -11.443,23.826 -2.627,36.677 1.877,2.813 3.846,4.971 5.91,6.659 -42.398,39.022 -98.961,62.941 -160.964,62.941 -131.041,0 -237.6,-106.559 -237.6,-237.6 0,-39.771 9.85,-77.293 27.203,-110.311 -0.094,42.68 22.7,78.137 33.393,88.83 34.894,34.8 85.454,23.825 91.925,52.997 6.566,29.079 -34.707,29.173 -31.986,51.403 2.813,22.325 56.562,28.235 44.556,48.777 -15.853,27.296 10.693,29.266 3.002,62.94 -4.127,18.386 22.418,21.95 32.268,7.974 7.504,-10.693 6.003,-23.826 21.105,-39.865 18.479,-19.699 61.347,-22.888 56.562,-55.438 -8.16,-54.029 -60.689,-62.472 -83.577,-75.136 -25.983,-14.257 -19.604,-48.495 -25.233,-64.816 -7.879,-23.169 -34.613,6.473 -48.871,-7.035 -23.45,-22.137 4.221,-53.467 23.919,-52.81 41.554,1.313 54.311,41.742 69.6,40.334 14.915,-1.313 24.577,-22.137 27.203,-33.205 5.535,-24.107 -9.38,-13.32 -15.383,-25.89 -8.067,-16.79 28.328,-32.83 42.398,-45.212 2.158,-1.876 3.752,-3.658 4.596,-5.347 4.223,-8.254 -1.312,-14.539 -10.693,-20.261 -18.759,-11.351 -52.997,-20.355 -54.591,-38.083 -0.939,-10.882 19.886,-16.134 43.617,-17.072 3.939,0.188 7.785,0.563 11.726,0.938 1.969,-11.163 5.158,-22.138 9.473,-32.643 -11.35,-1.501 -22.887,-2.252 -34.613,-2.252 -149.52,0 -271.18,121.66 -271.18,271.18 C 14.604,490.34 136.265,612 285.785,612 c 149.52,0 271.182,-121.661 271.182,-271.181 0,-20.261 -2.252,-40.053 -6.567,-59.002 z M 454.062,0.603 C 377.51,7.839 325.078,82.016 338.439,157.741 c 13.568,76.921 84.49,100.598 119.686,186.942 3.172,7.781 14.127,7.82 17.297,0.038 C 514.438,248.955 597.397,230.266 597.397,130.615 597.396,54.282 531.916,-6.756 454.062,0.603 Z m 12.719,198.99 c -38.096,0 -68.979,-30.882 -68.979,-68.978 0,-38.095 30.883,-68.977 68.979,-68.977 38.096,0 68.977,30.882 68.977,68.977 0,38.095 -30.883,68.978 -68.977,68.978 z"
         id="path5"
         style="fill:#ffffff" />
    </g>
  </g>
</svg>
