<?xml version="1.0" encoding="UTF-8" standalone="no"?>
<!-- Created with Inkscape (http://www.inkscape.org/) -->

<svg
   xmlns:dc="http://purl.org/dc/elements/1.1/"
   xmlns:cc="http://creativecommons.org/ns#"
   xmlns:rdf="http://www.w3.org/1999/02/22-rdf-syntax-ns#"
   xmlns:svg="http://www.w3.org/2000/svg"
   xmlns="http://www.w3.org/2000/svg"
   xmlns:sodipodi="http://sodipodi.sourceforge.net/DTD/sodipodi-0.dtd"
   xmlns:inkscape="http://www.inkscape.org/namespaces/inkscape"
   width="800"
   height="200"
   id="svg4161"
   version="1.1"
   inkscape:version="0.48.4 r9939"
   sodipodi:docname="category_olympics.svg"
   inkscape:export-filename="category_olympics.png"
   inkscape:export-xdpi="45"
   inkscape:export-ydpi="45">
  <defs
     id="defs4163" />
  <sodipodi:namedview
     id="base"
     pagecolor="#ffffff"
     bordercolor="#666666"
     borderopacity="1.0"
     inkscape:pageopacity="0.0"
     inkscape:pageshadow="2"
     inkscape:zoom="0.49497475"
     inkscape:cx="209.51708"
     inkscape:cy="177.7851"
     inkscape:document-units="px"
     inkscape:current-layer="layer1"
     showgrid="false"
     inkscape:window-width="992"
     inkscape:window-height="471"
     inkscape:window-x="466"
     inkscape:window-y="384"
     inkscape:window-maximized="0" />
  <metadata
     id="metadata4166">
    <rdf:RDF>
      <cc:Work
         rdf:about="">
        <dc:format>image/svg+xml</dc:format>
        <dc:type
           rdf:resource="http://purl.org/dc/dcmitype/StillImage" />
        <dc:title></dc:title>
      </cc:Work>
    </rdf:RDF>
  </metadata>
  <g
     inkscape:label="Layer 1"
     inkscape:groupmode="layer"
     id="layer1"
     transform="translate(0,-852.36218)">
    <flowRoot
       xml:space="preserve"
       id="flowRoot3442"
       style="font-size:48px;font-style:normal;font-variant:normal;font-weight:normal;font-stretch:normal;text-align:center;line-height:125%;letter-spacing:0px;word-spacing:0px;text-anchor:middle;fill:#f2f2f2;fill-opacity:1;stroke:none;font-family:Droid Sans;-inkscape-font-specification:Droid Sans"
       transform="translate(-76.68936,837.16951)"
       inkscape:export-filename="/home/brent/AndroidStudioProjects/androidbycode/CountryRankKing/art/menu_category_area.png"
       inkscape:export-xdpi="33.080002"
       inkscape:export-ydpi="33.080002"><flowRegion
         id="flowRegion3444"><rect
           id="rect3446"
           width="635.15735"
           height="174.42929"
           x="248.57143"
           y="69.505043"
           style="font-style:normal;font-variant:normal;font-weight:normal;font-stretch:normal;fill:#f2f2f2;font-family:Droid Sans;-inkscape-font-specification:Droid Sans" /></flowRegion><flowPara
         id="flowPara3450"
         style="font-size:64px;font-style:normal;font-variant:normal;font-weight:bold;font-stretch:normal;fill:#f2f2f2;font-family:Vemana2000;-inkscape-font-specification:Vemana2000 Bold">Olympic Medals</flowPara></flowRoot>    <g
       id="g2990"
       transform="matrix(1.7525411,0,0,1.7525411,-21.118144,-726.06481)">
      <path
         d="m 111.28575,958.10624 c 0,25.94688 -21.034058,46.98096 -46.980938,46.98096 -25.94623,0 -46.980941,-21.03408 -46.980941,-46.98096 0,-25.94688 21.034711,-46.98159 46.980941,-46.98159 25.94688,0 46.980938,21.03471 46.980938,46.98159"
         style="fill:#333333;fill-opacity:1;fill-rule:nonzero;stroke:none"
         id="path1078"
         inkscape:connector-curvature="0" />
      <g
         style="fill:#ffffff"
         id="g3"
         transform="matrix(1.0546028,0,0,1.0546028,25.629458,923.50312)">
        <g
           style="fill:#ffffff"
           id="g5">
          <path
             style="fill:#ffffff"
             id="path7"
             d="m 62.125,19.688 c -6.221,0 -11.327,4.809 -11.825,10.902 -0.184,-0.008 -0.364,-0.027 -0.55,-0.027 -0.186,0 -0.366,0.019 -0.549,0.027 -0.497,-6.094 -5.605,-10.902 -11.826,-10.902 -6.22,0 -11.328,4.809 -11.826,10.901 -0.183,-0.008 -0.364,-0.027 -0.549,-0.027 -0.439,0 -0.87,0.027 -1.297,0.073 C 23.228,24.52 18.11,19.687 11.875,19.687 5.327,19.688 0,25.016 0,31.563 c 0,6.547 5.327,11.874 11.875,11.874 0.439,0 0.87,-0.025 1.297,-0.072 0.475,6.114 5.593,10.948 11.828,10.948 6.22,0 11.328,-4.81 11.826,-10.901 0.183,0.008 0.363,0.026 0.549,0.026 0.186,0 0.366,-0.021 0.55,-0.026 0.496,6.094 5.604,10.901 11.825,10.901 6.221,0 11.328,-4.81 11.826,-10.901 0.183,0.008 0.363,0.026 0.549,0.026 C 68.673,43.438 74,38.109 74,31.563 74,25.017 68.673,19.688 62.125,19.688 z M 2,31.563 c 0,-5.445 4.43,-9.875 9.875,-9.875 5.266,0 9.57,4.146 9.848,9.345 -4.618,1.329 -8.089,5.384 -8.543,10.308 -0.428,0.06 -0.862,0.099 -1.306,0.099 C 6.429,41.438 2,37.007 2,31.563 z m 19.606,1.614 c -0.585,3.538 -3.051,6.438 -6.338,7.647 0.586,-3.537 3.051,-6.439 6.338,-7.647 z M 25,52.313 c -5.266,0 -9.57,-4.146 -9.848,-9.345 4.618,-1.329 8.089,-5.385 8.543,-10.308 0.428,-0.059 0.862,-0.099 1.306,-0.099 0.186,0 0.368,0.019 0.552,0.025 0.45,5.218 4.28,9.476 9.286,10.568 -0.371,5.114 -4.637,9.159 -9.839,9.159 z m 2.605,-19.391 c 3.757,1.031 6.62,4.225 7.165,8.156 -3.757,-1.032 -6.62,-4.224 -7.165,-8.156 z m 9.218,8.488 c -0.45,-5.216 -4.28,-9.474 -9.286,-10.569 0.372,-5.108 4.636,-9.153 9.839,-9.153 5.203,0 9.467,4.046 9.84,9.153 -5.006,1.096 -8.836,5.354 -9.286,10.569 -0.185,0.01 -0.365,0.027 -0.552,0.027 -0.187,0.001 -0.371,-0.018 -0.555,-0.027 z m 10.323,-8.488 c -0.545,3.934 -3.408,7.125 -7.166,8.156 0.545,-3.932 3.409,-7.125 7.166,-8.156 z m 2.604,19.391 c -5.202,0 -9.467,-4.045 -9.839,-9.153 5.006,-1.095 8.836,-5.353 9.286,-10.568 0.185,-0.01 0.365,-0.025 0.552,-0.025 0.187,0 0.368,0.019 0.553,0.025 0.449,5.218 4.279,9.476 9.285,10.568 -0.369,5.108 -4.635,9.153 -9.837,9.153 z m 2.605,-19.391 c 3.756,1.031 6.619,4.225 7.164,8.156 -3.755,-1.032 -6.619,-4.224 -7.164,-8.156 z m 9.77,8.516 c -0.186,0 -0.368,-0.019 -0.552,-0.026 -0.45,-5.216 -4.279,-9.474 -9.286,-10.569 0.372,-5.108 4.636,-9.153 9.839,-9.153 5.444,0 9.875,4.43 9.875,9.875 0,5.442 -4.431,9.873 -9.876,9.873 z"
             inkscape:connector-curvature="0" />
        </g>
      </g>
    </g>
  </g>
</svg>
