<?xml version="1.0" encoding="UTF-8" standalone="no"?>
<svg
   xmlns:dc="http://purl.org/dc/elements/1.1/"
   xmlns:cc="http://creativecommons.org/ns#"
   xmlns:rdf="http://www.w3.org/1999/02/22-rdf-syntax-ns#"
   xmlns:svg="http://www.w3.org/2000/svg"
   xmlns="http://www.w3.org/2000/svg"
   xmlns:sodipodi="http://sodipodi.sourceforge.net/DTD/sodipodi-0.dtd"
   xmlns:inkscape="http://www.inkscape.org/namespaces/inkscape"
   width="900"
   height="600"
   viewBox="0 0 90 60"
   id="svg2"
   version="1.1"
   inkscape:version="0.48.4 r9939"
   sodipodi:docname="Flag_of_Namibia.svg"
   inkscape:export-filename="Flag_of_Namibia.png"
   inkscape:export-xdpi="9.6000004"
   inkscape:export-ydpi="9.6000004">
  <metadata
     id="metadata20">
    <rdf:RDF>
      <cc:Work
         rdf:about="">
        <dc:format>image/svg+xml</dc:format>
        <dc:type
           rdf:resource="http://purl.org/dc/dcmitype/StillImage" />
        <dc:title></dc:title>
      </cc:Work>
    </rdf:RDF>
  </metadata>
  <defs
     id="defs18" />
  <sodipodi:namedview
     pagecolor="#ffffff"
     bordercolor="#666666"
     borderopacity="1"
     objecttolerance="10"
     gridtolerance="10"
     guidetolerance="10"
     inkscape:pageopacity="0"
     inkscape:pageshadow="2"
     inkscape:window-width="640"
     inkscape:window-height="480"
     id="namedview16"
     showgrid="false"
     inkscape:zoom="0.30333333"
     inkscape:cx="450"
     inkscape:cy="300"
     inkscape:window-x="66"
     inkscape:window-y="29"
     inkscape:window-maximized="0"
     inkscape:current-layer="svg2" />
  <path
     d="M90,0H0V60z"
     fill="#003580"
     id="path4" />
  <path
     d="M0,60H90V0z"
     fill="#009543"
     id="path6" />
  <path
     d="M0,48L72,0H90V12L18,60H0z"
     fill="#fff"
     id="path8" />
  <path
     d="M0,51L76.5,0H90V9L13.5,60H0z"
     fill="#d21034"
     id="path10" />
  <path
     d="M18,6.5 19.552914,10.704445 23,7.839746 22.242641,12.257359 26.660254,11.5 23.795555,14.947086 28,16.5 23.795555,18.052914 26.660254,21.5 22.242641,20.742641 23,25.160254 19.552914,22.295555 18,26.5 16.447086,22.295555 13,25.160254 13.757359,20.742641 9.339746,21.5 12.204445,18.052914 8,16.5 12.204445,14.947086 9.339746,11.5 13.757359,12.257359 13,7.839746 16.447086,10.704445z"
     fill="#ffce00"
     id="path12" />
  <circle
     cx="18"
     cy="16.5"
     r="5.5"
     fill="#ffce00"
     stroke="#003580"
     id="circle14" />
</svg>
